<svg data-v-423bf9ae="" xmlns="http://www.w3.org/2000/svg" viewBox="0 0 427 107" class="iconLeftSlogan"><!----><!----><!----><g data-v-423bf9ae="" id="87974d80-169f-4ca7-bbb8-30de4488750d" fill="#361C00" transform="matrix(5.714285714285714,0,0,5.714285714285714,105.53710898969854,-17.65714260510036)"><path d="M7.11 13.45L7.11 12.28L7.97 12.28L7.15 9.93L3.17 9.93L2.37 12.28L3.43 12.28L3.43 13.45L0.07 13.45L0.07 12.28L0.97 12.28L4.20 3.09L6.21 3.09L9.43 12.28L10.47 12.28L10.47 13.45L7.11 13.45ZM5.14 4.16L3.55 8.79L6.75 8.79L5.14 4.16ZM11.52 4.27L11.52 3.09L14.83 3.09L14.83 4.27L13.84 4.27L13.84 12.28L14.83 12.28L14.83 13.45L11.52 13.45L11.52 12.28L12.50 12.28L12.50 4.27L11.52 4.27ZM18.90 13.45L18.90 12.28L19.85 12.28L19.85 4.21L17.49 4.21L17.49 5.82L16.08 5.82L16.08 3.09L25.33 3.09L25.33 5.82L23.93 5.82L23.93 4.21L21.19 4.21L21.19 12.28L22.26 12.28L22.26 13.45L18.90 13.45ZM26.38 4.27L26.38 3.09L29.74 3.09L29.74 4.27L28.68 4.27L28.68 9.10L28.68 9.10Q28.68 9.97 28.87 10.58L28.87 10.58L28.87 10.58Q29.07 11.19 29.41 11.58L29.41 11.58L29.41 11.58Q29.76 11.96 30.23 12.14L30.23 12.14L30.23 12.14Q30.71 12.32 31.27 12.32L31.27 12.32L31.27 12.32Q31.86 12.32 32.35 12.16L32.35 12.16L32.35 12.16Q32.85 12.00 33.20 11.63L33.20 11.63L33.20 11.63Q33.55 11.26 33.75 10.64L33.75 10.64L33.75 10.64Q33.94 10.02 33.94 9.10L33.94 9.10L33.94 4.27L32.82 4.27L32.82 3.09L36.18 3.09L36.18 4.27L35.25 4.27L35.25 8.95L35.25 8.95Q35.25 10.07 34.94 10.94L34.94 10.94L34.94 10.94Q34.63 11.81 34.09 12.39L34.09 12.39L34.09 12.39Q33.55 12.98 32.82 13.29L32.82 13.29L32.82 13.29Q32.09 13.59 31.25 13.59L31.25 13.59L31.25 13.59Q30.43 13.59 29.71 13.29L29.71 13.29L29.71 13.29Q29.00 12.99 28.47 12.41L28.47 12.41L28.47 12.41Q27.94 11.83 27.63 10.99L27.63 10.99L27.63 10.99Q27.33 10.15 27.33 9.07L27.33 9.07L27.33 4.27L26.38 4.27ZM41.98 6.33L41.98 7.87L40.68 7.87L40.68 7.43L40.68 7.43Q40.46 7.43 40.22 7.52L40.22 7.52L40.22 7.52Q39.98 7.60 39.78 7.78L39.78 7.78L39.78 7.78Q39.57 7.95 39.42 8.22L39.42 8.22L39.42 8.22Q39.27 8.49 39.20 8.86L39.20 8.86L39.20 12.28L40.40 12.28L40.40 13.45L36.89 13.45L36.89 12.28L37.86 12.28L37.87 7.55L36.89 7.55L36.89 6.37L39.15 6.37L39.15 7.35L39.15 7.35Q39.27 7.13 39.43 6.94L39.43 6.94L39.43 6.94Q39.58 6.75 39.77 6.61L39.77 6.61L39.77 6.61Q39.96 6.47 40.19 6.40L40.19 6.40L40.19 6.40Q40.41 6.32 40.68 6.32L40.68 6.32L40.68 6.32Q41.04 6.32 41.35 6.32L41.35 6.32L41.35 6.32Q41.67 6.32 41.98 6.33L41.98 6.33ZM43.45 7.55L43.45 6.37L45.71 6.37L45.71 7.20L45.72 7.20L45.72 7.20Q45.95 7 46.21 6.83L46.21 6.83L46.21 6.83Q46.46 6.65 46.74 6.52L46.74 6.52L46.74 6.52Q47.02 6.39 47.33 6.32L47.33 6.32L47.33 6.32Q47.63 6.24 47.96 6.24L47.96 6.24L47.96 6.24Q48.73 6.24 49.28 6.52L49.28 6.52L49.28 6.52Q49.83 6.81 50.13 7.41L50.13 7.41L50.13 7.41Q50.39 7.18 50.68 6.96L50.68 6.96L50.68 6.96Q50.97 6.75 51.28 6.59L51.28 6.59L51.28 6.59Q51.59 6.43 51.93 6.34L51.93 6.34L51.93 6.34Q52.27 6.24 52.64 6.24L52.64 6.24L52.64 6.24Q53.22 6.24 53.68 6.40L53.68 6.40L53.68 6.40Q54.13 6.56 54.46 6.88L54.46 6.88L54.46 6.88Q54.78 7.20 54.94 7.70L54.94 7.70L54.94 7.70Q55.11 8.20 55.11 8.89L55.11 8.89L55.11 12.28L56.10 12.28L56.10 13.45L52.79 13.45L52.79 12.28L53.79 12.28L53.79 9.04L53.79 9.04Q53.79 8.23 53.38 7.81L53.38 7.81L53.38 7.81Q52.96 7.39 52.19 7.39L52.19 7.39L52.19 7.39Q51.73 7.39 51.26 7.61L51.26 7.61L51.26 7.61Q50.78 7.83 50.44 8.16L50.44 8.16L50.44 12.28L51.41 12.28L51.41 13.45L48.11 13.45L48.11 12.28L49.11 12.28L49.11 9.04L49.11 9.04Q49.11 8.23 48.70 7.81L48.70 7.81L48.70 7.81Q48.28 7.39 47.51 7.39L47.51 7.39L47.51 7.39Q47.07 7.39 46.61 7.60L46.61 7.60L46.61 7.60Q46.16 7.81 45.76 8.13L45.76 8.13L45.76 12.28L46.76 12.28L46.76 13.45L43.45 13.45L43.45 12.28L44.43 12.28L44.43 7.55L43.45 7.55Z"></path></g><defs data-v-423bf9ae=""><linearGradient data-v-423bf9ae="" gradientTransform="rotate(25)" id="c368acd5-17ae-400e-b798-960c8480ebaa" x1="0%" y1="0%" x2="100%" y2="0%"><stop data-v-423bf9ae="" offset="0%" style="stop-color: rgb(235, 76, 0); stop-opacity: 1;"></stop><stop data-v-423bf9ae="" offset="100%" style="stop-color: rgb(242, 169, 0); stop-opacity: 1;"></stop></linearGradient></defs><g data-v-423bf9ae="" id="172765aa-42cb-4d47-96de-fdfdbb277537" transform="matrix(1.0880043029785156,0,0,1.0880043029785156,-10.918300626698326,-1.4175944146346353)" stroke="none" fill="url(#c368acd5-17ae-400e-b798-960c8480ebaa)"><path d="M72.176 69.302a4.794 4.794 0 0 0 4.774-4.773 4.796 4.796 0 0 0-4.774-4.773c-2.64.008-4.773 2.142-4.769 4.773-.005 2.634 2.129 4.766 4.769 4.773zM20.156 71.949H80.33v8.928H20.156zM78.537 39.587c-.145-.043-14.487-4.269-28.952-4.269-13.829 0-27.646 4.214-27.783 4.256l-2.762-8.95c.618-.191 15.32-4.674 30.545-4.674 15.873 0 30.999 4.471 31.635 4.662l-2.683 8.975z"></path><path d="M62.401 62.999H53.37l4.602-6.695a2.85 2.85 0 0 0 .42-2.296 2.88 2.88 0 0 0-1.444-1.848l-9.552-5.115a2.93 2.93 0 0 0-3.949 1.158 2.86 2.86 0 0 0 1.174 3.9l6.726 3.6s-6.616 9.688-6.627 9.718c-.362.541-.526 1.31-.526 2.053 0 2.472 2.028 4.476 4.531 4.476h13.678c2.503 0 4.53-2.004 4.53-4.476-.001-2.473-2.029-4.475-4.532-4.475zM32.263 52.795l6.473-2.633.732 1.8-6.473 2.633zM39.277 61.12l-1.643-1.034 3.671-5.835 1.644 1.035zM64.096 4.46c-.375-.159-9.36-3.33-23.514 1.047-5.225 1.616-10.356 4.727-15.251 9.247a3.237 3.237 0 0 0 4.39 4.756c4.18-3.86 8.478-6.49 12.773-7.819 7.348-2.271 12.229-.866 14.77.407l-9.044 6.417a2.589 2.589 0 1 0 2.995 4.223l13.586-9.637c2.813-1.763 3.866-6.707-.705-8.641zM68.06 5.982a4.705 4.705 0 0 1 5.091-4.275 4.71 4.71 0 0 1 4.282 5.099 4.697 4.697 0 0 1-5.099 4.274 4.697 4.697 0 0 1-4.274-5.098z"></path><path d="M82.576 23.216V40.46H17.995V23.1h-7.184l-.019 76.51h7.244v-9.616h64.54v9.616h7.202V23.216h-7.202zM17.995 83.203l.042-35.951h64.54v35.951H17.995z"></path></g><!----><g data-v-423bf9ae="" id="e3cc205b-4bb3-4db0-93e8-c5f36ed0b8f6" fill="#361C00" transform="matrix(1.0788355625145003,0,0,1.0788355625145003,105.37612412646263,56.87137527890872)"><path d="M0.52 3.49C0.52 3.72 0.63 3.74 0.80 3.74L1.41 3.74C1.47 3.74 1.54 4.79 1.54 5.71C1.54 5.80 1.60 8.27 1.60 9.83L1.60 11.17C1.60 11.84 1.58 12.18 1.53 12.18L0.94 12.18C0.71 12.18 0.64 12.19 0.64 12.39C0.64 12.63 0.66 12.68 0.85 12.68C1.06 12.68 1.90 12.64 2.32 12.64C2.74 12.64 3.68 12.68 4.00 12.68C4.17 12.68 4.20 12.61 4.20 12.40C4.20 12.24 4.17 12.18 4.00 12.18L2.87 12.18C2.81 12.18 2.83 10.16 2.79 8.33C2.79 8.08 2.77 8.09 2.97 8.09L5.39 8.09C6.09 8.09 6.12 8.19 6.12 8.30L6.12 9.16C6.12 9.28 6.30 9.28 6.41 9.28C6.51 9.28 6.64 9.28 6.64 9.17C6.64 8.99 6.61 8.33 6.61 7.83C6.61 7.32 6.64 6.82 6.64 6.69C6.64 6.58 6.52 6.58 6.40 6.58C6.23 6.58 6.12 6.58 6.12 6.71L6.12 7.45C6.12 7.62 5.67 7.63 5.39 7.63L2.97 7.63C2.76 7.63 2.79 7.66 2.79 7.45C2.77 7.13 2.76 6.15 2.76 5.26C2.76 4.52 2.77 3.71 2.84 3.71C4.24 3.71 6.43 3.75 6.72 3.79C6.72 3.96 6.68 4.82 6.68 4.89C6.68 5.04 6.75 5.10 6.93 5.10C7.13 5.10 7.20 5.08 7.20 4.94C7.20 3.85 7.25 3.36 7.25 3.09C7.25 2.93 7.17 2.90 6.97 2.90C6.85 2.90 6.78 2.90 6.75 3.11C6.73 3.25 6.80 3.25 5.85 3.25C5.25 3.25 2.97 3.29 2.23 3.29C1.74 3.29 0.80 3.25 0.70 3.25C0.57 3.25 0.52 3.30 0.52 3.49ZM15.08 12.39C15.08 12.63 15.12 12.68 15.32 12.68C15.64 12.68 16.39 12.64 17.11 12.64C17.77 12.64 18.56 12.68 18.79 12.68C18.96 12.68 18.98 12.61 18.98 12.40C18.98 12.24 18.96 12.18 18.79 12.18L17.82 12.18C17.72 12.18 17.70 9.55 17.70 7.76L17.70 5.87C17.70 5.14 17.72 3.70 17.82 3.70L18.73 3.70C18.96 3.70 18.98 3.68 18.98 3.49C18.98 3.25 18.96 3.19 18.79 3.19C18.47 3.19 17.79 3.23 17.14 3.23C16.32 3.23 15.61 3.19 15.39 3.19C15.20 3.19 15.13 3.21 15.13 3.44C15.13 3.68 15.22 3.70 15.39 3.70L16.31 3.70C16.35 3.70 16.42 4.79 16.42 5.71L16.42 7.08C16.42 8.92 16.41 12.18 16.30 12.18L15.37 12.18C15.15 12.18 15.08 12.19 15.08 12.39ZM26.88 12.39C26.88 12.63 26.89 12.68 27.09 12.68C27.27 12.68 27.65 12.64 28.27 12.64C28.90 12.64 29.46 12.68 29.78 12.68C29.95 12.68 29.95 12.61 29.95 12.40C29.95 12.24 29.95 12.18 29.78 12.18L28.57 12.18C28.53 12.18 28.52 11.54 28.52 10.79C28.52 9.46 28.53 7.48 28.53 5.99C28.53 5.25 28.53 4.84 28.55 4.28C28.55 4.02 28.62 4.14 28.74 4.28L35.63 12.66C35.71 12.75 35.80 12.89 35.91 12.89C36.02 12.89 36.09 12.77 36.09 12.54C36.09 12.39 36.26 6.65 36.27 4.48C36.27 4.06 36.30 3.70 36.33 3.70L36.96 3.70C37.18 3.70 37.24 3.68 37.24 3.49C37.24 3.25 37.24 3.19 37.04 3.19C36.85 3.19 36.41 3.23 35.85 3.23C35.24 3.23 34.44 3.19 34.34 3.19C34.17 3.19 34.17 3.26 34.17 3.47C34.17 3.64 34.17 3.70 34.34 3.70L35.64 3.70C35.66 3.70 35.66 4.33 35.66 4.44C35.66 5.85 35.69 8.33 35.69 9.70L35.69 10.29C35.69 10.57 35.67 10.65 35.45 10.37L29.76 3.39C29.65 3.25 29.62 3.19 29.46 3.19C29.37 3.19 28.99 3.23 28.69 3.23C28.39 3.23 27.31 3.19 27.12 3.19C26.95 3.19 26.92 3.26 26.92 3.47C26.92 3.64 26.95 3.70 27.12 3.70L28.03 3.70C28.03 4.17 27.99 8.53 27.92 10.79C27.89 11.69 27.90 12.18 27.79 12.18L27.15 12.18C26.92 12.18 26.88 12.19 26.88 12.39ZM45.21 12.46C45.21 12.63 45.22 12.70 45.40 12.70C45.56 12.70 46.79 12.64 47.18 12.64C48.03 12.64 48.92 12.70 49.77 12.70C52.39 12.70 54.78 11.07 54.78 7.91C54.78 4.89 52.44 3.07 49.41 3.07C48.85 3.07 47.59 3.23 46.55 3.23C46.07 3.23 45.61 3.22 45.56 3.22C45.37 3.22 45.36 3.32 45.36 3.49C45.36 3.68 45.43 3.70 45.56 3.70L46.52 3.67C46.55 3.67 46.55 4.20 46.55 4.72C46.55 5.91 46.47 12.21 46.38 12.21L45.49 12.21C45.30 12.21 45.21 12.22 45.21 12.46ZM47.78 11.40C47.78 9.46 47.78 7.52 47.80 5.60C47.80 5.03 47.84 3.61 47.88 3.60C48.17 3.53 48.76 3.51 49.11 3.51C51.67 3.51 53.28 5.75 53.28 7.73C53.28 8.95 53.24 12.25 48.57 12.25C48.30 12.25 47.89 12.25 47.80 12.21C47.78 12.19 47.78 11.79 47.78 11.40ZM72.27 3.44C72.27 3.68 72.35 3.70 72.52 3.70L72.93 3.70C73.05 3.70 75.31 7.74 75.71 8.50C75.77 8.60 75.81 8.65 75.81 8.81C75.81 10.50 75.80 12.18 75.67 12.18L74.96 12.18C74.73 12.18 74.69 12.19 74.69 12.39C74.69 12.63 74.70 12.68 74.90 12.68C75.10 12.68 75.91 12.64 76.50 12.64C77.32 12.64 77.85 12.68 78.18 12.68C78.34 12.68 78.37 12.61 78.37 12.40C78.37 12.24 78.34 12.18 78.18 12.18L77.21 12.18C77.11 12.18 77.08 9.72 77.08 8.22C77.08 8.18 77.08 8.15 77.13 8.09C77.67 7.22 79.62 3.70 79.69 3.70L80.16 3.70C80.33 3.70 80.43 3.68 80.43 3.44C80.43 3.22 80.35 3.19 80.16 3.19C79.94 3.19 79.70 3.23 79.10 3.23C78.51 3.23 78.18 3.19 78.01 3.19C77.81 3.19 77.77 3.25 77.77 3.49C77.77 3.68 77.84 3.70 78.06 3.70L78.79 3.70C78.81 3.70 78.82 3.71 78.82 3.74C78.82 4.05 77.25 6.99 76.87 7.71C76.76 7.92 76.76 7.88 76.65 7.67C76.24 6.89 74.96 4.56 74.66 3.85C74.61 3.71 74.59 3.70 74.77 3.70L75.60 3.70C75.82 3.70 75.85 3.68 75.85 3.49C75.85 3.25 75.81 3.19 75.66 3.19C75.42 3.19 74.80 3.23 74.00 3.23C73.19 3.23 72.70 3.19 72.52 3.19C72.34 3.19 72.27 3.21 72.27 3.44ZM87.56 8.15C87.56 11.17 89.89 12.80 92.15 12.80C94.93 12.80 96.91 10.89 96.91 8.06C96.91 5.33 95.16 3.11 92.36 3.11C89.75 3.11 87.56 5.10 87.56 8.15ZM88.96 7.77C88.96 5.64 90.24 3.58 92.22 3.58C94.46 3.58 95.54 5.81 95.54 7.94C95.54 10.08 94.43 12.32 92.16 12.32C90.17 12.32 88.96 10.28 88.96 7.77ZM105.01 3.51C105.01 3.75 105.10 3.77 105.27 3.77L105.80 3.77C105.85 3.77 105.85 4.12 105.85 4.55C105.85 5.66 105.84 8.96 105.84 9.42C105.84 11.13 106.09 12.80 108.95 12.80C110.03 12.80 111.19 12.38 111.85 12.00C112.10 11.86 112.39 11.72 112.48 11.72C112.74 11.72 113.01 12.74 113.34 12.74C113.67 12.74 113.68 12.35 113.68 12.25C113.68 11.96 113.74 10.08 113.78 8.16C113.83 6.12 113.82 3.77 113.93 3.77L114.25 3.77C114.48 3.77 114.55 3.75 114.55 3.56C114.55 3.32 114.51 3.26 114.31 3.26C114.17 3.26 113.64 3.30 113.22 3.30C112.80 3.30 112.00 3.26 111.78 3.26C111.59 3.26 111.50 3.28 111.50 3.51C111.50 3.75 111.61 3.77 111.78 3.77L112.48 3.77C112.55 3.77 112.56 4.30 112.56 4.87L112.56 9.14C112.56 11.19 112.56 11.12 112.22 11.34C111.83 11.61 111.02 12.08 109.84 12.08C107.87 12.08 107.07 11.17 107.07 9.41C107.07 8.82 107.14 3.77 107.25 3.77L108.16 3.77C108.39 3.77 108.43 3.75 108.43 3.56C108.43 3.32 108.42 3.26 108.22 3.26C107.90 3.26 107.02 3.30 106.60 3.30C106.18 3.30 105.49 3.26 105.27 3.26C105.08 3.26 105.01 3.28 105.01 3.51ZM122.58 3.51C122.58 3.72 122.65 3.79 122.85 3.79L123.66 3.77C123.76 3.77 123.80 6.61 123.80 8.55L123.80 10.42C123.80 11.30 123.79 12.18 123.75 12.18L123.14 12.18C122.92 12.18 122.85 12.19 122.85 12.39C122.85 12.63 122.89 12.68 123.09 12.68C123.21 12.68 124.04 12.64 124.46 12.64C124.88 12.64 125.65 12.68 125.97 12.68C126.14 12.68 126.17 12.61 126.17 12.40C126.17 12.24 126.14 12.18 125.97 12.18L125.16 12.18C125.09 12.18 125.01 9.18 125.01 8.37C125.01 8.30 125.01 8.26 125.12 8.26C125.51 8.26 126.11 8.27 126.41 8.27C128.65 8.32 128.79 10.00 128.79 11.68L128.79 12.49C128.79 12.61 128.84 12.64 128.94 12.64C128.94 12.64 130.38 12.68 130.86 12.68C131.03 12.68 131.08 12.64 131.08 12.53C131.08 12.24 131.03 12.18 130.87 12.18L130.23 12.18C130.13 12.18 130.10 12.14 130.07 11.31C129.99 8.99 128.62 8.34 127.71 8.05C127.57 8.01 127.60 8.01 127.71 7.95C128.30 7.69 129.61 6.94 129.61 5.63C129.61 3.63 127.92 3.21 126.52 3.21C126.20 3.21 124.91 3.29 124.49 3.29C124.07 3.29 123.09 3.26 122.86 3.26C122.68 3.26 122.58 3.28 122.58 3.51ZM125.01 7.80L125.01 4.40C125.01 4.05 125.03 3.68 125.08 3.68C125.29 3.65 125.57 3.65 125.79 3.65C127.09 3.65 128.34 4.47 128.34 5.82C128.34 6.99 127.79 7.57 127.13 7.88C127.09 7.90 127.05 7.90 126.98 7.90C126.50 7.88 125.79 7.88 125.19 7.87C125.02 7.87 125.01 7.85 125.01 7.80ZM148.36 3.51C148.36 3.72 148.43 3.79 148.62 3.79L149.44 3.77C149.53 3.77 149.58 6.61 149.58 8.55L149.58 10.42C149.58 11.30 149.56 12.18 149.52 12.18L148.92 12.18C148.69 12.18 148.62 12.19 148.62 12.39C148.62 12.63 148.67 12.68 148.86 12.68C148.99 12.68 149.81 12.64 150.23 12.64C150.65 12.64 151.42 12.68 151.75 12.68C151.91 12.68 151.94 12.61 151.94 12.40C151.94 12.24 151.91 12.18 151.75 12.18L150.93 12.18C150.86 12.18 150.78 9.18 150.78 8.37C150.78 8.30 150.78 8.26 150.89 8.26C151.28 8.26 151.89 8.27 152.18 8.27C154.42 8.32 154.56 10.00 154.56 11.68L154.56 12.49C154.56 12.61 154.62 12.64 154.71 12.64C154.71 12.64 156.16 12.68 156.63 12.68C156.80 12.68 156.86 12.64 156.86 12.53C156.86 12.24 156.80 12.18 156.65 12.18L156.00 12.18C155.90 12.18 155.88 12.14 155.85 11.31C155.76 8.99 154.39 8.34 153.48 8.05C153.34 8.01 153.37 8.01 153.48 7.95C154.07 7.69 155.39 6.94 155.39 5.63C155.39 3.63 153.69 3.21 152.29 3.21C151.97 3.21 150.68 3.29 150.26 3.29C149.84 3.29 148.86 3.26 148.64 3.26C148.46 3.26 148.36 3.28 148.36 3.51ZM150.78 7.80L150.78 4.40C150.78 4.05 150.81 3.68 150.85 3.68C151.06 3.65 151.34 3.65 151.56 3.65C152.87 3.65 154.11 4.47 154.11 5.82C154.11 6.99 153.57 7.57 152.91 7.88C152.87 7.90 152.82 7.90 152.75 7.90C152.28 7.88 151.56 7.88 150.96 7.87C150.79 7.87 150.78 7.85 150.78 7.80ZM164.26 8.15C164.26 11.17 166.60 12.80 168.85 12.80C171.64 12.80 173.61 10.89 173.61 8.06C173.61 5.33 171.86 3.11 169.06 3.11C166.46 3.11 164.26 5.10 164.26 8.15ZM165.66 7.77C165.66 5.64 166.95 3.58 168.92 3.58C171.16 3.58 172.24 5.81 172.24 7.94C172.24 10.08 171.14 12.32 168.87 12.32C166.88 12.32 165.66 10.28 165.66 7.77ZM181.79 8.15C181.79 11.17 184.13 12.80 186.38 12.80C189.17 12.80 191.14 10.89 191.14 8.06C191.14 5.33 189.39 3.11 186.59 3.11C183.99 3.11 181.79 5.10 181.79 8.15ZM183.19 7.77C183.19 5.64 184.48 3.58 186.45 3.58C188.69 3.58 189.77 5.81 189.77 7.94C189.77 10.08 188.66 12.32 186.40 12.32C184.41 12.32 183.19 10.28 183.19 7.77ZM199.18 12.39C199.18 12.63 199.21 12.68 199.40 12.68C199.64 12.68 200.14 12.64 200.56 12.64C200.98 12.64 201.47 12.68 201.80 12.68C201.96 12.68 201.99 12.61 201.99 12.40C201.99 12.24 201.96 12.18 201.80 12.18L200.83 12.18C200.77 12.18 200.76 11.54 200.76 10.79C200.76 8.96 200.80 6.13 200.87 4.28C200.90 3.88 200.93 3.91 201.07 4.27L204.33 12.32C204.43 12.54 204.50 12.74 204.61 12.74C204.71 12.74 204.78 12.63 204.86 12.45C205.20 11.79 205.38 11.75 205.65 11.09L208.24 4.47C208.36 4.16 208.40 4.02 208.42 4.47C208.45 5.66 208.49 8.47 208.49 9.74C208.49 10.99 208.45 12.18 208.39 12.18L207.76 12.18C207.54 12.18 207.47 12.19 207.47 12.39C207.47 12.63 207.49 12.68 207.69 12.68C207.89 12.68 208.59 12.64 209.19 12.64C209.61 12.64 210.36 12.68 210.69 12.68C210.85 12.68 210.88 12.61 210.88 12.40C210.88 12.22 210.83 12.18 210.66 12.18L209.93 12.18C209.82 12.18 209.72 8.44 209.72 6.03L209.72 4.77C209.72 4.17 209.75 3.77 209.79 3.70L210.45 3.70C210.67 3.70 210.71 3.68 210.71 3.49C210.71 3.25 210.70 3.19 210.50 3.19C210.18 3.19 209.50 3.23 209.08 3.23L208.40 3.23C208.18 3.23 208.15 3.29 208.04 3.58L205.30 10.72C205.21 10.95 205.18 11.02 205.07 10.74L202.13 3.40C202.06 3.22 202.01 3.19 201.87 3.19C201.78 3.19 201.29 3.23 200.98 3.23C200.48 3.23 199.63 3.19 199.43 3.19C199.29 3.19 199.29 3.26 199.29 3.47C199.29 3.64 199.29 3.70 199.43 3.70L200.13 3.70C200.40 3.70 200.40 3.72 200.40 3.84C200.40 4.82 200.19 9.94 200.14 10.79C200.10 11.55 200.10 12.18 200.05 12.18L199.47 12.18C199.25 12.18 199.18 12.19 199.18 12.39ZM218.64 12.39C218.64 12.63 218.68 12.68 218.88 12.68C219.20 12.68 219.95 12.64 220.67 12.64C221.33 12.64 222.12 12.68 222.35 12.68C222.52 12.68 222.54 12.61 222.54 12.40C222.54 12.24 222.52 12.18 222.35 12.18L221.38 12.18C221.28 12.18 221.26 9.55 221.26 7.76L221.26 5.87C221.26 5.14 221.28 3.70 221.38 3.70L222.29 3.70C222.52 3.70 222.54 3.68 222.54 3.49C222.54 3.25 222.52 3.19 222.35 3.19C222.03 3.19 221.35 3.23 220.70 3.23C219.88 3.23 219.17 3.19 218.95 3.19C218.76 3.19 218.69 3.21 218.69 3.44C218.69 3.68 218.78 3.70 218.95 3.70L219.87 3.70C219.91 3.70 219.98 4.79 219.98 5.71L219.98 7.08C219.98 8.92 219.97 12.18 219.86 12.18L218.93 12.18C218.71 12.18 218.64 12.19 218.64 12.39ZM230.44 12.39C230.44 12.63 230.47 12.68 230.66 12.68C230.99 12.68 231.95 12.64 232.37 12.64C232.79 12.64 237.30 12.68 237.62 12.68C237.75 12.68 237.90 12.66 237.90 12.49C237.90 12.07 237.94 11.23 237.94 10.53C237.94 10.39 237.79 10.39 237.66 10.39C237.55 10.39 237.43 10.39 237.43 10.51C237.41 11.06 237.41 11.41 237.38 11.76C237.36 12.01 237.36 12.04 237.26 12.04C237.10 12.04 234.47 12.08 232.97 12.08C232.90 12.08 232.86 10.11 232.82 8.26C232.82 8.06 232.86 8.09 233.00 8.09L235.28 8.09C235.98 8.09 236.01 8.20 236.01 8.30L236.01 9.00C236.01 9.14 236.19 9.14 236.31 9.14C236.40 9.14 236.53 9.13 236.53 9.02C236.53 8.83 236.50 8.33 236.50 7.83C236.50 7.32 236.53 6.83 236.53 6.71C236.53 6.59 236.39 6.58 236.29 6.58C236.18 6.58 236.01 6.59 236.01 6.72L236.01 7.45C236.01 7.62 235.56 7.63 235.28 7.63L232.95 7.63C232.83 7.63 232.82 7.63 232.82 7.45C232.81 6.75 232.79 6.06 232.79 5.46C232.79 5.12 232.79 3.71 232.88 3.71C234.11 3.71 236.61 3.75 236.61 3.81C236.61 3.99 236.57 4.83 236.57 4.89C236.57 5.04 236.64 5.10 236.82 5.10C237.02 5.10 237.09 5.08 237.09 4.94C237.09 3.85 237.15 3.36 237.15 3.09C237.15 2.91 237.06 2.90 236.87 2.90C236.67 2.90 236.67 2.95 236.64 3.11C236.63 3.25 236.70 3.25 235.79 3.25C235.17 3.25 233.03 3.29 232.26 3.29C231.77 3.29 230.83 3.25 230.73 3.25C230.61 3.25 230.55 3.30 230.55 3.49C230.55 3.72 230.62 3.74 230.79 3.74L231.45 3.74C231.50 3.74 231.57 4.79 231.57 5.71C231.57 5.80 231.63 8.27 231.63 9.83L231.63 11.17C231.63 11.84 231.60 12.18 231.57 12.18L230.72 12.18C230.50 12.18 230.44 12.21 230.44 12.39Z"></path></g></svg>